<svg width="20" height="20" viewBox="0 0 20 20" fill="none" xmlns="http://www.w3.org/2000/svg">
<path d="M9.99918 5.19274C7.33902 5.19274 5.19215 7.33961 5.19215 9.99977C5.19215 12.6599 7.33902 14.8068 9.99918 14.8068C12.6593 14.8068 14.8062 12.6599 14.8062 9.99977C14.8062 7.33961 12.6593 5.19274 9.99918 5.19274ZM9.99918 13.124C8.27887 13.124 6.87496 11.7201 6.87496 9.99977C6.87496 8.27946 8.27887 6.87555 9.99918 6.87555C11.7195 6.87555 13.1234 8.27946 13.1234 9.99977C13.1234 11.7201 11.7195 13.124 9.99918 13.124ZM15.0031 3.87555C14.382 3.87555 13.8804 4.37711 13.8804 4.99821C13.8804 5.6193 14.382 6.12086 15.0031 6.12086C15.6242 6.12086 16.1257 5.62164 16.1257 4.99821C16.1259 4.85073 16.097 4.70466 16.0407 4.56837C15.9843 4.43208 15.9016 4.30824 15.7973 4.20396C15.6931 4.09967 15.5692 4.01698 15.4329 3.96063C15.2966 3.90428 15.1506 3.87537 15.0031 3.87555ZM19.3695 9.99977C19.3695 8.70602 19.3812 7.42399 19.3086 6.13258C19.2359 4.63258 18.8937 3.30133 17.7968 2.20446C16.6976 1.10524 15.3687 0.765394 13.8687 0.692738C12.575 0.620082 11.2929 0.631801 10.0015 0.631801C8.70777 0.631801 7.42574 0.620082 6.13434 0.692738C4.63434 0.765394 3.30309 1.10758 2.20621 2.20446C1.10699 3.30368 0.767149 4.63258 0.694493 6.13258C0.621837 7.42633 0.633555 8.70836 0.633555 9.99977C0.633555 11.2912 0.621837 12.5756 0.694493 13.867C0.767149 15.367 1.10934 16.6982 2.20621 17.7951C3.30543 18.8943 4.63434 19.2341 6.13434 19.3068C7.42809 19.3795 8.71012 19.3677 10.0015 19.3677C11.2953 19.3677 12.5773 19.3795 13.8687 19.3068C15.3687 19.2341 16.7 18.892 17.7968 17.7951C18.8961 16.6959 19.2359 15.367 19.3086 13.867C19.3836 12.5756 19.3695 11.2935 19.3695 9.99977ZM17.307 15.5263C17.1359 15.9529 16.9296 16.2716 16.5992 16.5998C16.2687 16.9302 15.9523 17.1365 15.5257 17.3076C14.2929 17.7974 11.3656 17.6873 9.99918 17.6873C8.63277 17.6873 5.70309 17.7974 4.47027 17.3099C4.04371 17.1388 3.72496 16.9326 3.39684 16.6021C3.06637 16.2716 2.86012 15.9552 2.68902 15.5287C2.20152 14.2935 2.31168 11.3662 2.31168 9.99977C2.31168 8.63336 2.20152 5.70368 2.68902 4.47086C2.86012 4.0443 3.06637 3.72555 3.39684 3.39743C3.72731 3.0693 4.04371 2.86071 4.47027 2.68961C5.70309 2.20211 8.63277 2.31227 9.99918 2.31227C11.3656 2.31227 14.2953 2.20211 15.5281 2.68961C15.9546 2.86071 16.2734 3.06696 16.6015 3.39743C16.932 3.72789 17.1382 4.0443 17.3093 4.47086C17.7968 5.70368 17.6867 8.63336 17.6867 9.99977C17.6867 11.3662 17.7968 14.2935 17.307 15.5263Z" fill="white"/>
</svg>
