<svg width="14" height="18" viewBox="0 0 14 18" fill="none" xmlns="http://www.w3.org/2000/svg">
<path d="M0.0769984 6.45696C0.0769984 5.67896 0.212998 4.94396 0.480998 4.25796C0.737052 3.59166 1.11748 2.98013 1.602 2.45596C2.08553 1.93867 2.63887 1.49136 3.246 1.12696C3.86891 0.750109 4.5433 0.465804 5.248 0.282957C5.96121 0.0956784 6.69561 0.00123175 7.433 0.00195727C8.572 0.00195727 9.632 0.242957 10.615 0.722957C11.5852 1.1942 12.4109 1.9174 13.006 2.81696C13.62 3.73196 13.925 4.76696 13.925 5.92096C13.925 6.61296 13.857 7.28996 13.718 7.95196C13.5815 8.61359 13.3646 9.25603 13.072 9.86496C12.7931 10.4544 12.4285 10.9993 11.99 11.482C11.5493 11.9569 11.0155 12.3361 10.422 12.596C9.7776 12.8784 9.08052 13.0205 8.377 13.013C7.888 13.013 7.4 12.898 6.918 12.667C6.436 12.437 6.09 12.121 5.882 11.716C5.809 11.997 5.709 12.403 5.576 12.934C5.448 13.464 5.362 13.806 5.324 13.961C5.284 14.115 5.21 14.372 5.102 14.728C5.02876 14.9913 4.9348 15.2484 4.821 15.497L4.477 16.171C4.32823 16.4602 4.16192 16.74 3.979 17.009C3.798 17.271 3.574 17.584 3.307 17.944L3.158 17.997L3.059 17.889C2.952 16.756 2.897 16.078 2.897 15.854C2.897 15.191 2.976 14.447 3.132 13.621C3.285 12.796 3.527 11.759 3.852 10.512C4.177 9.26596 4.363 8.53296 4.413 8.31596C4.184 7.84896 4.068 7.23896 4.068 6.48896C4.068 5.88996 4.255 5.32896 4.63 4.80096C5.006 4.27496 5.481 4.01196 6.057 4.01196C6.498 4.01196 6.84 4.15796 7.085 4.45096C7.331 4.74296 7.451 5.11096 7.451 5.55996C7.451 6.03596 7.293 6.72496 6.975 7.62596C6.657 8.52796 6.499 9.20096 6.499 9.64796C6.499 10.101 6.661 10.48 6.985 10.777C7.30474 11.0741 7.72759 11.2351 8.164 11.226C8.56 11.226 8.927 11.136 9.268 10.955C9.60367 10.7793 9.89422 10.5284 10.117 10.222C10.6022 9.55625 10.9481 8.79948 11.134 7.99696C11.23 7.57496 11.304 7.17396 11.35 6.79696C11.399 6.41796 11.42 6.05996 11.42 5.71996C11.42 4.47296 11.024 3.50096 10.237 2.80496C9.446 2.10896 8.416 1.76296 7.149 1.76296C5.708 1.76296 4.503 2.22896 3.538 3.16396C2.572 4.09596 2.086 5.28096 2.086 6.71796C2.086 7.03496 2.134 7.34096 2.225 7.63696C2.314 7.93196 2.411 8.16696 2.516 8.34096C2.62 8.51196 2.718 8.67896 2.807 8.83296C2.897 8.98696 2.944 9.09696 2.944 9.16296C2.944 9.36496 2.891 9.62796 2.784 9.95296C2.673 10.278 2.542 10.44 2.384 10.44C2.369 10.44 2.307 10.429 2.199 10.406C1.82496 10.2943 1.48717 10.0855 1.22 9.80096C0.936436 9.50601 0.712653 9.15896 0.560998 8.77896C0.409776 8.40031 0.291993 8.00915 0.208998 7.60996C0.11933 7.23224 0.0750173 6.84517 0.0769984 6.45696Z" fill="white"/>
</svg>
