<?xml version="1.0" encoding="utf-8"?>
<!-- Generator: Adobe Illustrator 16.0.0, SVG Export Plug-In . SVG Version: 6.00 Build 0)  -->
<!DOCTYPE svg PUBLIC "-//W3C//DTD SVG 1.1//EN" "http://www.w3.org/Graphics/SVG/1.1/DTD/svg11.dtd">
<svg version="1.1" id="Layer_1" xmlns="http://www.w3.org/2000/svg" xmlns:xlink="http://www.w3.org/1999/xlink" x="0px" y="0px"
	 width="67px" height="13px" viewBox="0 0 67 13" enable-background="new 0 0 67 13" xml:space="preserve">
<g>
	<path d="M13.288,12.424l-1.44-8.444l-2.395,8.444H6.806L4.412,3.979l-1.44,8.444H0L2.377,0.18h3.205l2.557,8.588l2.539-8.588h3.205
		l2.377,12.244H13.288z"/>
	<path d="M23.06,12.604c-3.385,0-6.302-2.917-6.302-6.302C16.758,2.917,19.675,0,23.06,0s6.302,2.917,6.302,6.302
		C29.362,9.687,26.445,12.604,23.06,12.604z M23.06,2.683c-1.891,0-3.602,1.71-3.602,3.601c0,1.89,1.711,3.619,3.602,3.619
		s3.601-1.729,3.601-3.619C26.661,4.394,24.951,2.683,23.06,2.683z"/>
	<path d="M30.852,0.18h2.701v9.795h4.394v2.449h-7.095V0.18z"/>
	<path d="M46.533,12.424h-7.095V0.18h7.095v2.449h-4.394V5.06h4.213v2.449h-4.213v2.467h4.394V12.424z"/>
	<path d="M55.569,12.424h-7.095V0.18h7.095v2.449h-4.394V5.06h4.213v2.449h-4.213v2.467h4.394V12.424z"/>
	<path d="M66.008,12.424H56.79l5.113-9.795h-4.754V0.18h9.147l-5.114,9.795h4.826V12.424z"/>
</g>
</svg>
